# AST/ASF file generated using VICON BodyLanguage
# -----------------------------------------------
:version 1.10
:name VICON
:units
  mass 1.0
  length 0.45
  angle deg
:documentation
   .ast/.asf automatically generated from VICON data using
   VICON BodyBuilder and BodyLanguage model FoxedUp or BRILLIANT.MOD
:root
   order TX TY TZ RX RY RZ
   axis XYZ
   position 0 0 0  
   orientation 0 0 0 
:bonedata
  begin
     id 1 
     name lhipjoint
     direction 0.702568 -0.596508 0.388042 
     length 2.56661 
     axis 0 0 0  XYZ
  end
  begin
     id 2 
     name lfemur
     direction 0.34202 -0.939693 0  
     length 6.58374  
     axis 0 0 20  XYZ
    dof rx ry rz
    limits (-160.0 20.0)
           (-70.0 70.0)
           (-60.0 70.0)
  end
  begin
     id 3 
     name ltibia
     direction 0.34202 -0.939693 0   
     length 6.62538   
     axis 0 0 20   XYZ
    dof rx
    limits (-10.0 170.0)
  end
  begin
     id 4 
     name lfoot
     direction 0.10455 -0.287249 0.952133   
     length 2.26699   
     axis -90 7.62852e-016 20   XYZ
    dof rx rz
    limits (-45.0 90.0)
           (-70.0 20.0)
  end
  begin
     id 5 
     name ltoes
     direction 1.53572e-011 -4.22322e-011 1   
     length 1.12949   
     axis -90 7.62852e-016 20   XYZ
    dof rx
    limits (-90.0 20.0)
  end
  begin
     id 6 
     name rhipjoint
     direction -0.728055 -0.574632 0.373811   
     length 2.66432  
     axis 0 0 0  XYZ 
  end
  begin
     id 7 
     name rfemur
     direction -0.34202 -0.939693 0   
     length 6.66732   
     axis 0 0 -20   XYZ
    dof rx ry rz
    limits (-160.0 20.0)
           (-70.0 70.0)
           (-70.0 60.0)
  end
  begin
     id 8 
     name rtibia
     direction -0.34202 -0.939693 0   
     length 6.59288   
     axis 0 0 -20   XYZ
    dof rx
    limits (-10.0 170.0)
 end
 begin
     id 9 
     name rfoot
     direction -0.119193 -0.327479 0.93731   
     length 2.38061  
     axis -90 -7.62852e-016 -20   XYZ
    dof rx rz
    limits (-45.0 90.0)
           (-20.0 70.0)
  end
  begin
     id 10 
     name rtoes
     direction -1.53547e-011 -4.21827e-011 1   
     length 1.17899   
     axis -90 -7.62852e-016 -20   XYZ
    dof rx
    limits (-90.0 20.0)
  end
  begin
     id 11 
     name lowerback
     direction -0.000416114 0.999912 -0.0132284   
     length 2.12109   
     axis 0 0 0   XYZ
    dof rx ry rz
    limits (-20.0 45.0)
           (-30.0 30.0)
           (-30.0 30.0)
  end
  begin
     id 12 
     name upperback
     direction -0.00136371 0.99809 0.0617608   
     length 2.10067   
     axis 0 0 0   XYZ
    dof rx ry rz
    limits (-20.0 45.0)
           (-30.0 30.0)
           (-30.0 30.0)
  end
  begin
     id 13 
     name thorax
     direction -3.43026e-005 0.997776 0.0666515   
     length 2.10618   
     axis 0 0 0   XYZ
    dof rx ry rz
    limits (-20.0 45.0)
           (-30.0 30.0)
           (-30.0 30.0)
  end
  begin
     id 14 
     name lowerneck
     direction 0.0398646 0.998418 0.0396592   
     length 1.83817   
     axis 0 0 0   XYZ
    dof rx ry rz
    limits (-20.0 45.0)
           (-30.0 30.0)
           (-30.0 30.0)
  end
  begin
     id 15 
     name upperneck
     direction -0.0367268 0.961527 -0.272244   
     length 1.81975   
     axis 0 0 0   XYZ
    dof rx ry rz
    limits (-20.0 45.0)
           (-30.0 30.0)
           (-30.0 30.0)
  end
  begin
     id 16
     name head
     direction -0.0182665 0.99536 -0.0944669  
     length 1.86026  
     axis 0 0 0   XYZ
    dof rx ry rz
    limits (-20.0 45.0)
           (-30.0 30.0)
           (-30.0 30.0)
  end
  begin
     id 17 
     name lclavicle
     direction 0.924239 0.361045 0.124212  
     length 3.26878  
     axis 0 0 0   XYZ
    dof ry rz
    limits (-20.0 10.0)
           (0.0 20.0)
  end
  begin
     id 18 
     name lhumerus
     direction 1 -4.48968e-011 -2.56583e-027   
     length 4.58538   
     axis 180 -30 -90   XYZ
    dof rx ry rz
    limits (-60.0 90.0)
           (-90.0 90.0)
           (-90.0 90.0)
  end
  begin
     id 19
     name lradius
     direction 1 -4.4898e-011 -5.50375e-027   
     length 2.68935   
     axis 180 -30 -90   XYZ
    dof rx
    limits (-10.0 170.0)
  end
  begin
     id 20
     name lwrist
     direction 1 -4.48939e-011 -1.48955e-026   
     length 1.34468   
     axis 9.0955e-015 90 90   XYZ
    dof ry
    limits (-180.0 0.0)
 end
  begin
     id 21 
     name lhand
     direction 1 -4.48936e-011 -2.97907e-026   
     length 0.585058   
     axis 1.90115e-014 90 90   XYZ
    dof rx rz
    limits (-90.0 90.0)
           (-45.0 45.0)
  end
  begin
     id 22 
     name lfingers
     direction 1 -4.49082e-011 -5.96235e-026   
     length 0.471689   
     axis 3.80223e-014 90 90   XYZ
    dof rx
    limits (0.0 90.0)
  end
  begin
     id 23
     name lthumb
     direction 0.707107 -6.3489e-011 0.707107   
     length 0.677253   
     axis -90 45 -3.84942e-014   XYZ
    dof rx rz
    limits (-45.0 45.0)
           (-45.0 45.0)
  end
  begin
     id 24 
     name rclavicle
     direction -0.923098 0.371783 0.0983239   
     length 3.19656  
     axis 0 0 0   XYZ 
    dof ry rz
    limits (-10.0 20.0)
           (-20.0 0.0)
  end
  begin
     id 25 
     name rhumerus
     direction -1 -4.48976e-011 -2.5492e-027  
     length 4.4745   
     axis 180 30 90   XYZ
    dof rx ry rz
    limits (-90.0 60.0)
           (-90.0 90.0)
           (-90.0 90.0)
  end
  begin
     id 26 
     name rradius
     direction -1 -4.48941e-011 -4.36555e-027   
     length 2.93896   
     axis 180 30 90   XYZ
    dof rx
    limits (-10.0 170.0)
  end
  begin
     id 27 
     name rwrist
     direction -1 -4.49044e-011 -1.49032e-026   
     length 1.46948   
     axis 9.0955e-015 -90 -90   XYZ
    dof ry
    limits (-180.0 0.0)
  end
  begin
     id 28
     name rhand
     direction -1 -4.48826e-011 -2.97749e-026   
     length 0.405092   
     axis 1.90115e-014 -90 -90   XYZ
    dof rx rz
    limits (-90.0 90.0)
           (-45.0 45.0)
  end
  begin
     id 29
     name rfingers
     direction -1 -4.49209e-011 -5.96602e-026   
     length 0.326596   
     axis 3.80223e-014 -90 -90   XYZ
    dof rx
    limits (0.0 90.0)
  end
  begin
     id 30
     name rthumb
     direction -0.707107 -6.34776e-011 0.707107   
     length 0.468928   
     axis -90 -45 3.84942e-014   XYZ
    dof rx rz
    limits (-45.0 45.0)
           (-45.0 45.0)
  end
:hierarchy
  begin
    root lhipjoint rhipjoint lowerback
    lhipjoint lfemur
    lfemur ltibia
    ltibia lfoot
    lfoot ltoes
    rhipjoint rfemur
    rfemur rtibia
    rtibia rfoot
    rfoot rtoes
    lowerback upperback
    upperback thorax
    thorax lowerneck lclavicle rclavicle
    lowerneck upperneck
    upperneck head
    lclavicle lhumerus
    lhumerus lradius
    lradius lwrist
    lwrist lhand lthumb
    lhand lfingers
    rclavicle rhumerus
    rhumerus rradius
    rradius rwrist
    rwrist rhand rthumb
    rhand rfingers
  end

#!OML:ASF H:\Punching\Project 1\Capture day 1\Session 1\female.ASF
:FULLY-SPECIFIED
:DEGREES
628
root 2.00835 15.7831 6.93543 13.8702 1.19066 -3.61135
lowerback -5.52171 0.774134 4.55208
upperback -6.26035 0.918381 0.532138
thorax -3.32492 0.29368 -1.97482
lowerneck -9.68582 1.59046 8.31966
upperneck 22.2509 1.76499 -4.87754
head 8.63712 1.03836 -2.87366
rclavicle 8.37147e-015 3.926e-015
rhumerus -42.211 27.568 -104.352
rradius 27.1327
rwrist 8.37918
rhand -6.12641 -7.1418
rfingers 7.12502
rthumb 19.7108 -36.1625
lclavicle 8.37147e-015 3.926e-015
lhumerus -45.9004 -26.078 104.844
lradius 36.3321
lwrist -16.7354
lhand -1.42877 10.4231
lfingers 7.12502
lthumb 24.2212 38.9135
rfemur -14.1781 9.65424 19.7836
rtibia 20.0682
rfoot -16.1293 -29.9383
rtoes 1.66618
lfemur -18.2043 -11.2758 -15.2009
ltibia 26.2547
lfoot -19.4593 16.642
ltoes 1.82989
629
root 2.0015 15.7822 6.94229 13.9255 1.26837 -3.57117
lowerback -5.68678 0.698798 4.5257
upperback -6.34173 0.811373 0.51255
thorax -3.32541 0.2394 -1.98186
lowerneck -9.55035 1.65668 8.37422
upperneck 22.2807 1.87384 -4.93954
head 8.63116 1.08994 -2.8935
rclavicle 9.93302e-015 1.49089e-015
rhumerus -42.0127 26.1904 -103.189
rradius 26.5699
rwrist 9.1161
rhand -6.04115 -7.06156
rfingers 7.12502
rthumb 19.7928 -36.0738
lclavicle 9.93302e-015 1.49089e-015
lhumerus -46.3871 -25.0467 104.046
lradius 35.9302
lwrist -18.1826
lhand -0.771347 9.70349
lfingers 7.12502
lthumb 24.8514 38.1083
rfemur -14.1264 10.4761 19.7509
rtibia 20.0012
rfoot -16.3548 -30.8681
rtoes 2.04313
lfemur -18.3092 -11.2765 -15.2074
ltibia 26.3342
lfoot -19.4665 16.6362
ltoes 1.78954
630
root 1.99345 15.7814 6.94841 13.9771 1.31607 -3.51532
lowerback -5.83302 0.634469 4.46405
upperback -6.41841 0.721031 0.487717
thorax -3.33041 0.194731 -1.97458
lowerneck -9.43422 1.71514 8.42533
upperneck 22.305 1.96847 -4.9912
head 8.62593 1.13531 -2.91065
rclavicle 5.33923e-015 1.98785e-016
rhumerus -41.7742 24.752 -101.991
rradius 26.0457
rwrist 9.8245
rhand -5.89529 -7.0001
rfingers 7.12502
rthumb 19.933 -35.9978
lclavicle 5.33923e-015 1.98785e-016
lhumerus -46.9098 -24.1072 103.311
lradius 35.855
lwrist -18.8932
lhand -0.280054 9.34935
lfingers 7.12502
lthumb 25.3221 37.6884
rfemur -14.1026 11.2423 19.7031
rtibia 19.9736
rfoot -16.5827 -31.7143
rtoes 2.37843
lfemur -18.3911 -11.2559 -15.2343
ltibia 26.3839
lfoot -19.4603 16.6296
ltoes 1.75418
631
root 1.98504 15.7805 6.95371 14.0083 1.34191 -3.44205
lowerback -5.94063 0.578276 4.37648
upperback -6.4855 0.644217 0.456649
thorax -3.34587 0.157681 -1.95936
lowerneck -9.34393 1.76769 8.476
upperneck 22.3241 2.05177 -5.03897
head 8.62293 1.17535 -2.92748
rclavicle 1.85739e-015 9.44227e-015
rhumerus -41.5171 23.3026 -100.799
rradius 25.5738
rwrist 10.4032
rhand -5.70753 -6.99349
rfingers 7.12502
rthumb 20.1135 -35.9723
lclavicle 1.85739e-015 9.44227e-015
lhumerus -47.4674 -23.2907 102.67
lradius 36.0879
lwrist -18.7868
lhand 0.0108529 9.37513
lfingers 7.12502
lthumb 25.6008 37.6744
rfemur -14.0874 11.8694 19.6405
rtibia 19.9796
rfoot -16.7904 -32.3908
rtoes 2.64438
lfemur -18.4303 -11.2251 -15.2872
ltibia 26.3992
lfoot -19.4392 16.6221
ltoes 1.71668
632
root 1.97687 15.7799 6.95795 14.0142 1.34 -3.36292
lowerback -5.9977 0.531709 4.27786
upperback -6.54306 0.583137 0.425654
thorax -3.37834 0.128791 -1.93785
lowerneck -9.28034 1.8157 8.52329
upperneck 22.3367 2.1279 -5.09084
head 8.62218 1.21094 -2.94577
rclavicle 8.05699e-015 1.44119e-014
rhumerus -41.269 21.9112 -99.6565
rradius 25.1687
rwrist 10.7558
rhand -5.48421 -7.06305
rfingers 7.12502
rthumb 20.3281 -36.0192
lclavicle 8.05699e-015 1.44119e-014
lhumerus -48.0565 -22.607 102.146
lradius 36.6014
lwrist -17.8563
lhand 0.0268025 9.73108
lfingers 7.12502
lthumb 25.616 38.0281
rfemur -14.0754 12.3006 19.574
rtibia 20.009
rfoot -16.9478 -32.832
rtoes 2.82457
lfemur -18.4204 -11.1882 -15.3567
ltibia 26.3815
lfoot -19.4074 16.6224
ltoes 1.68405
633
root 1.96953 15.7797 6.96077 13.9948 1.30351 -3.28891
lowerback -5.99709 0.499241 4.18363
upperback -6.59261 0.543537 0.396848
thorax -3.43308 0.110254 -1.91626
lowerneck -9.24563 1.85799 8.56813
upperneck 22.3435 2.19567 -5.15071
head 8.62423 1.24118 -2.96711
rclavicle -5.12181e-015 1.16289e-014
rhumerus -41.0429 20.6296 -98.5984
rradius 24.8303
rwrist 10.8536
rhand -5.27274 -7.19515
rfingers 7.12502
rthumb 20.5313 -36.1295
lclavicle -5.12181e-015 1.16289e-014
lhumerus -48.6687 -22.0711 101.748
lradius 37.3626
lwrist -16.1659
lhand -0.250435 10.327
lfingers 7.12502
lthumb 25.3505 38.662
rfemur -14.0647 12.4968 19.5136
rtibia 20.0502
rfoot -17.0286 -32.9928
rtoes 2.90369
lfemur -18.365 -11.151 -15.4322
ltibia 26.3394
lfoot -19.372 16.6437
ltoes 1.65525
634
root 1.96356 15.7801 6.96188 13.956 1.23392 -3.23565
lowerback -5.94568 0.483199 4.11614
upperback -6.63224 0.527315 0.373866
thorax -3.50426 0.102335 -1.90319
lowerneck -9.24211 1.89356 8.60613
upperneck 22.3391 2.25347 -5.21579
head 8.62744 1.26511 -2.98986
rclavicle 9.70007e-015 4.37326e-015
rhumerus -40.8388 19.4965 -97.6439
rradius 24.5635
rwrist 10.7044
rhand -5.11657 -7.36868
rfingers 7.12502
rthumb 20.6814 -36.2868
lclavicle 9.70007e-015 4.37326e-015
lhumerus -49.2746 -21.6753 101.464
lradius 38.3311
lwrist -13.8762
lhand -0.786691 11.0594
lfingers 7.12502
lthumb 24.8366 39.4662
rfemur -14.0549 12.445 19.4752
rtibia 20.0876
rfoot -17.016 -32.8674
rtoes 2.86949
lfemur -18.2799 -11.1177 -15.4951
ltibia 26.2881
lfoot -19.3419 16.6893
ltoes 1.64631
635
root 1.95906 15.7807 6.96123 13.9035 1.12821 -3.2179
lowerback -5.85427 0.487027 4.09295
upperback -6.66487 0.538099 0.359412
thorax -3.58881 0.106165 -1.90554
lowerneck -9.2478 1.91975 8.63414
upperneck 22.3135 2.29924 -5.28355
head 8.62407 1.28188 -3.01272
rclavicle 5.86415e-015 -7.95139e-016
rhumerus -40.6614 18.527 -96.8022
rradius 24.3662
rwrist 10.3664
rhand -5.00596 -7.55856
rfingers 7.12502
rthumb 20.7877 -36.465
lclavicle 5.86415e-015 -7.95139e-016
lhumerus -49.857 -21.3959 101.262
lradius 39.4574
lwrist -11.2492
lhand -1.49468 11.8174
lfingers 7.12502
lthumb 24.158 40.3162
rfemur -14.0464 12.1857 19.4726
rtibia 20.1093
rfoot -16.9053 -32.498
rtoes 2.72148
lfemur -18.1791 -11.0911 -15.5282
ltibia 26.2444
lfoot -19.3248 16.7694
ltoes 1.64296
636
root 1.956 15.7813 6.95896 13.8463 0.992904 -3.23715
lowerback -5.7434 0.509268 4.11785
upperback -6.6889 0.57289 0.352255
thorax -3.6738 0.120261 -1.92678
lowerneck -9.25577 1.93531 8.65326
upperneck 22.2606 2.33042 -5.3497
head 8.61055 1.29083 -3.03458
rclavicle 5.62188e-016 1.78906e-015
rhumerus -40.505 17.7307 -96.0777
rradius 24.2357
rwrist 9.92198
rhand -4.93775 -7.73803
rfingers 7.12502
rthumb 20.8532 -36.6373
lclavicle 5.62188e-016 1.78906e-015
lhumerus -50.3869 -21.197 101.096
lradius 40.6925
lwrist -8.61902
lhand -2.24718 12.5236
lfingers 7.12502
lthumb 23.4363 41.1164
rfemur -14.0403 11.7681 19.5078
rtibia 20.1089
rfoot -16.7132 -31.9459
rtoes 2.47587
lfemur -18.081 -11.074 -15.5262
ltibia 26.2224
lfoot -19.3258 16.8806
ltoes 1.65456
637
root 1.9542 15.7817 6.95547 13.7886 0.834862 -3.28924
lowerback -5.62762 0.547701 4.18567
upperback -6.70216 0.628251 0.349828
thorax -3.74892 0.143232 -1.96677
lowerneck -9.2593 1.93819 8.66268
upperneck 22.1743 2.34286 -5.40629
head 8.58315 1.29071 -3.0529
rclavicle -2.92586e-015 5.96354e-016
rhumerus -40.3634 17.103 -95.4671
rradius 24.1669
rwrist 9.47242
rhand -4.92268 -7.87667
rfingers 7.12502
rthumb 20.8677 -36.7744
lclavicle -2.92586e-015 5.96354e-016
lhumerus -50.8439 -21.0419 100.921
lradius 41.9939
lwrist -6.33072
lhand -2.9344 13.1464
lfingers 7.12502
lthumb 22.7769 41.8218
rfemur -14.0366 11.2399 19.5779
rtibia 20.091
rfoot -16.4636 -31.269
rtoes 2.1433
lfemur -17.9914 -11.0634 -15.4923
ltibia 26.2263
lfoot -19.3504 17.0138
ltoes 1.68895
638
root 1.95322 15.7819 6.95123 13.7354 0.662859 -3.36203
lowerback -5.5221 0.598263 4.28119
upperback -6.70621 0.698489 0.347777
thorax -3.8075 0.172863 -2.0216
lowerneck -9.25303 1.92736 8.66722
upperneck 22.0586 2.33391 -5.44944
head 8.54218 1.28121 -3.06752
rclavicle -3.63093e-015 3.27995e-015
rhumerus -40.2372 16.6352 -94.9688
rradius 24.1535
rwrist 9.09319
rhand -4.95084 -7.95797
rfingers 7.12502
rthumb 20.8406 -36.8586
lclavicle -3.63093e-015 3.27995e-015
lhumerus -51.2259 -20.9135 100.711
lradius 43.3142
lwrist -4.65313
lhand -3.50811 13.6298
lfingers 7.12502
lthumb 22.2262 42.3719
rfemur -14.0417 10.6413 19.6726
rtibia 20.0687
rfoot -16.1817 -30.5241
rtoes 1.72996
lfemur -17.9128 -11.0561 -15.4375
ltibia 26.2497
lfoot -19.3915 17.1606
ltoes 1.72932
639
root 1.95259 15.7817 6.94664 13.6862 0.485238 -3.43472
lowerback -5.43064 0.655077 4.37779
upperback -6.70067 0.776135 0.340752
thorax -3.84736 0.206505 -2.08204
lowerneck -9.24141 1.90246 8.67066
upperneck 21.9221 2.30138 -5.47528
head 8.4912 1.26199 -3.07809
rclavicle -8.25578e-015 -7.35503e-015
rhumerus -40.1201 16.3198 -94.5803
rradius 24.1902
rwrist 8.81394
rhand -5.0159 -7.98605
rfingers 7.12502
rthumb 20.7781 -36.8936
lclavicle -8.25578e-015 -7.35503e-015
lhumerus -51.5338 -20.8057 100.458
lradius 44.6253
lwrist -3.71573
lhand -3.9221 13.9672
lfingers 7.12502
lthumb 21.8288 42.7561
rfemur -14.0592 9.99576 19.7721
rtibia 20.0624
rfoot -15.9054 -29.7437
rtoes 1.26671
lfemur -17.8376 -11.0467 -15.3836
ltibia 26.2771
lfoot -19.4402 17.3049
ltoes 1.76359
